<svg width="32" height="32" viewBox="0 0 32 32" fill="none" xmlns="http://www.w3.org/2000/svg">
<path d="M16.0003 29.3333C23.3643 29.3333 29.3337 23.364 29.3337 16C29.3337 8.63596 23.3643 2.66663 16.0003 2.66663C8.63633 2.66663 2.66699 8.63596 2.66699 16C2.66699 23.364 8.63633 29.3333 16.0003 29.3333Z" fill="#050505"/>
<path d="M21.373 15.2933L17.373 11.2933C17.1848 11.1073 16.9309 11.0031 16.6663 11.0031C16.4018 11.0031 16.1479 11.1073 15.9597 11.2933C15.573 11.68 15.573 12.32 15.9597 12.7067L18.253 15H11.333C10.7863 15 10.333 15.4533 10.333 16C10.333 16.5467 10.7863 17 11.333 17H18.253L15.9597 19.2933C15.573 19.68 15.573 20.32 15.9597 20.7067C16.1597 20.9067 16.413 21 16.6663 21C16.9197 21 17.173 20.9067 17.373 20.7067L21.373 16.7067C21.7597 16.32 21.7597 15.68 21.373 15.2933Z" fill="#FFFAEB"/>
</svg>
