<svg version="1.1" id="Layer_1" xmlns="http://www.w3.org/2000/svg" xmlns:xlink="http://www.w3.org/1999/xlink" x="0px" y="0px"
	 width="100%" viewBox="0 0 1080 810" enable-background="new 0 0 1080 810" xml:space="preserve">
<path fill="#000000" opacity="1.000000" stroke="none" 
	d="
M655.000000,811.000000 
	C436.695465,811.000000 218.890900,811.000000 1.043178,811.000000 
	C1.043178,541.064453 1.043178,271.128937 1.043178,1.096696 
	C360.887970,1.096696 720.775940,1.096696 1080.832031,1.096696 
	C1080.832031,270.999908 1080.832031,540.999939 1080.832031,811.000000 
	C939.128845,811.000000 797.314392,811.000000 655.000000,811.000000 
M810.969116,434.320038 
	C814.341064,434.541199 817.712952,434.762360 822.043945,434.632538 
	C825.630981,435.183167 829.217957,435.733795 832.804993,436.284393 
	C832.886841,435.560638 832.968689,434.836853 833.050537,434.113098 
	C830.743408,433.910645 828.436340,433.708221 825.940125,433.489166 
	C825.940125,431.625641 825.940125,429.872589 825.940125,428.155151 
	C828.221191,427.788818 830.240173,427.464569 832.259216,427.140320 
	C832.223816,426.645844 832.188477,426.151337 832.153076,425.656860 
	C830.158875,425.442810 828.164673,425.228729 825.934326,424.989349 
	C825.934326,423.127594 825.934326,421.369415 825.934326,419.526154 
	C828.424377,419.298706 830.704224,419.090454 832.984070,418.882233 
	C832.954712,418.461456 832.925354,418.040710 832.895996,417.619934 
	C829.645935,417.619934 826.395874,417.619934 822.824158,417.619934 
	C822.824158,422.264008 822.947327,426.913208 822.743652,431.548065 
	C822.687744,432.821625 821.654541,434.052185 820.596008,434.464050 
	C818.559448,434.114594 816.522888,433.765137 813.642456,433.270874 
	C813.642456,427.873993 813.642456,422.521820 813.642456,417.169678 
	C813.020081,417.177551 812.397644,417.185425 811.775269,417.193329 
	C811.775269,421.700348 811.918945,426.214661 811.691650,430.710205 
	C811.619324,432.142303 810.561401,433.524597 809.532288,433.986542 
	C807.761658,433.866364 805.990967,433.746185 803.842224,433.600342 
	C803.842224,430.438721 803.945557,427.476288 803.810547,424.524780 
	C803.695984,422.020477 803.305908,419.528809 803.037781,417.031525 
	C802.444885,417.132935 801.851929,417.234344 801.259033,417.335724 
	C801.259033,423.463257 801.259033,429.590790 801.259033,436.566315 
	C804.355652,435.860901 807.144531,435.225616 810.969116,434.320038 
M407.524170,341.989288 
	C404.242493,341.989288 400.960785,341.989288 395.912415,341.989288 
	C398.890594,336.224487 400.648895,330.929352 403.935791,326.872742 
	C409.830994,319.597168 418.713989,319.738434 427.468140,319.916016 
	C427.812958,316.279572 428.120483,313.036346 428.463898,309.414581 
	C419.499298,308.429230 411.298889,309.513092 403.579529,313.611298 
	C392.335663,319.580597 388.424164,330.162811 386.277039,342.075836 
	C378.887756,342.075836 371.797852,342.075836 364.517212,342.075836 
	C364.517212,345.593353 364.517212,348.693298 364.517212,352.418152 
	C371.216034,352.418152 377.783112,352.418152 385.389282,352.418152 
	C381.659485,373.932587 377.978088,394.652557 374.528717,415.411102 
	C373.615753,420.905396 370.479004,424.941498 365.871796,426.761383 
	C361.323730,428.557861 356.026489,428.439819 351.068054,429.225677 
	C349.475861,429.478027 347.106049,429.429779 346.503418,430.397736 
	C345.080261,432.683594 344.505096,435.497406 343.161072,439.304077 
	C349.382965,439.590790 354.798340,440.389313 360.117218,439.968414 
	C370.420654,439.153198 383.138763,429.890472 384.982483,418.126007 
	C388.194275,397.632263 391.766724,377.194794 394.935089,356.694672 
	C395.445404,353.392731 396.344452,352.186981 399.812500,352.276276 
	C409.112152,352.515686 418.421997,352.357971 427.724182,352.357971 
	C427.724182,348.698486 427.724182,345.453583 427.724182,341.989288 
	C421.131775,341.989288 414.823761,341.989288 407.524170,341.989288 
M207.799774,394.056976 
	C212.056961,392.439453 216.314163,390.821930 220.719467,389.148102 
	C220.922653,390.104279 221.208008,391.447113 221.482758,392.740051 
	C224.745804,392.740051 227.659744,392.740051 230.507828,392.740051 
	C230.507828,367.457306 230.507828,342.447357 230.507828,317.360718 
	C226.831619,317.360718 223.540039,317.360718 219.943390,317.360718 
	C219.943390,326.096893 219.943390,334.659637 219.943390,342.092407 
	C214.218231,341.203430 208.471039,339.034454 203.099518,339.737122 
	C191.147263,341.300690 183.559769,350.571442 182.462357,363.706238 
	C180.921082,382.153503 190.572372,395.663116 207.799774,394.056976 
M294.248566,356.242676 
	C292.307739,347.841614 287.044006,342.478790 278.844849,340.293060 
	C267.933929,337.384369 258.196960,339.966034 250.838760,348.563354 
	C243.366623,357.293793 242.395569,367.650116 246.590988,378.081421 
	C253.505615,395.273712 277.198730,399.898132 293.426941,387.245758 
	C292.156799,384.882782 290.855927,382.462646 289.564941,380.060913 
	C271.451843,388.463989 256.090118,384.044128 256.497650,370.316833 
	C269.214111,370.316833 281.952301,370.316833 295.383514,370.316833 
	C295.080963,365.542999 294.810303,361.272095 294.248566,356.242676 
M458.308716,339.137329 
	C444.738312,339.332245 434.531525,346.501251 431.069244,358.269623 
	C427.613373,370.016296 431.845947,382.984985 441.218567,389.367401 
	C451.958679,396.681030 468.125336,395.824249 479.161224,387.176178 
	C477.823395,384.825287 476.463409,382.435486 475.115997,380.067780 
	C457.259979,388.734467 441.915192,384.275757 442.259155,370.373260 
	C454.834106,370.373260 467.425323,370.373260 479.897644,370.373260 
	C484.224457,354.579315 476.048126,342.507263 458.308716,339.137329 
M502.856262,366.715576 
	C509.676941,368.723083 516.622986,370.399017 523.254822,372.906097 
	C525.804504,373.869934 529.102478,376.489624 529.472290,378.773804 
	C530.104004,382.674896 526.042725,383.865936 522.768066,384.711639 
	C521.500549,385.039001 520.130615,385.022034 518.804321,385.061371 
	C510.560944,385.305756 503.205627,382.668213 496.412079,377.823029 
	C494.621490,380.450226 492.949890,382.902863 491.145782,385.549896 
	C501.647949,393.142090 513.203064,395.872955 525.662231,393.450195 
	C535.274048,391.581146 540.617920,385.894836 540.895874,378.745026 
	C541.204529,370.804626 537.609314,366.732971 526.849731,363.386841 
	C521.485413,361.718597 515.862244,360.813202 510.621185,358.853912 
	C508.657440,358.119812 507.445404,355.374969 505.890656,353.546906 
	C507.818420,352.014130 509.543579,349.609406 511.710480,349.105927 
	C519.359985,347.328552 526.404114,349.551910 533.118347,354.123169 
	C535.012756,351.535583 536.804016,349.088959 538.698486,346.501282 
	C528.300476,339.927948 517.714539,337.104004 506.072052,340.856293 
	C500.402374,342.683563 495.992584,345.991241 494.977539,352.341003 
	C493.955719,358.733032 496.653351,363.291992 502.856262,366.715576 
M598.345581,350.011139 
	C599.790527,349.932648 601.235535,349.854187 602.787109,349.769897 
	C602.787109,346.666809 602.787109,343.882233 602.787109,340.415283 
	C594.614746,340.415283 586.573975,340.415283 578.074097,340.415283 
	C578.074097,334.669525 578.074097,329.606018 578.074097,324.556122 
	C574.803833,324.556122 572.031250,324.556122 569.135925,324.556122 
	C568.588623,329.990265 568.063538,335.203888 567.487671,340.921814 
	C562.547119,340.921814 557.969238,340.921814 553.371338,340.921814 
	C553.371338,344.229431 553.371338,346.966156 553.371338,350.060089 
	C558.054199,350.060089 562.486511,350.060089 567.310242,350.060089 
	C567.310242,357.859894 567.206421,365.301514 567.338562,372.738953 
	C567.479492,380.670532 568.853027,388.441223 576.994873,392.025543 
	C586.429016,396.178833 595.875061,394.523438 605.181458,390.668182 
	C604.181763,387.510468 603.394958,385.024963 602.914185,383.506317 
	C596.649719,383.736084 590.889160,384.563690 585.323547,383.856354 
	C583.008972,383.562256 579.474426,380.115753 579.308655,377.893005 
	C578.625793,368.732330 579.022766,359.491150 579.022766,350.011200 
	C585.091309,350.011200 591.232300,350.011200 598.345581,350.011139 
M340.571503,385.163422 
	C346.630249,370.532074 352.688995,355.900757 358.769897,341.215881 
	C348.516449,339.511169 348.516144,339.511047 344.831268,348.550964 
	C343.893616,350.851318 342.957214,353.152100 342.022461,355.453613 
	C338.596588,363.888367 335.171692,372.323456 331.658722,380.974365 
	C326.528046,368.219513 321.636841,355.911987 316.565796,343.678955 
	C316.050232,342.435211 314.549988,340.942291 313.338654,340.773895 
	C310.329224,340.355530 307.222595,340.636353 303.794189,340.636353 
	C311.398926,358.631866 318.665710,375.827667 325.860748,392.853668 
	C337.137817,393.343933 337.137817,393.343933 340.571503,385.163422 
M697.295410,392.326416 
	C709.713623,397.273834 720.591614,392.550354 724.737671,379.984283 
	C728.385315,368.928772 728.393372,357.695465 724.374023,346.696075 
	C720.997192,337.455322 714.518982,333.304047 704.835022,333.619843 
	C696.512634,333.891205 689.091125,339.179718 687.410095,348.119202 
	C685.838135,356.478546 685.367981,365.247040 685.907837,373.740417 
	C686.376526,381.114197 689.863464,387.800751 697.295410,392.326416 
M825.164246,351.023712 
	C822.065125,360.009796 813.688171,358.557220 806.900269,360.051056 
	C805.482666,364.167816 806.397827,366.083435 811.013306,366.062836 
	C813.931824,366.049835 816.941956,366.859650 819.758118,367.772217 
	C825.425659,369.608826 827.846130,373.326385 827.238159,378.572784 
	C826.737854,382.890137 822.756958,386.392334 817.579163,387.206421 
	C809.877563,388.417297 803.190002,386.143005 797.016907,380.919006 
	C795.651794,382.677704 794.480957,384.186127 793.367188,385.621002 
	C801.113831,394.793976 817.320801,397.235901 827.450745,391.055359 
	C838.554565,384.280670 838.285278,370.972717 826.916199,364.684509 
	C825.658081,363.988678 824.394653,363.302338 822.671692,362.358521 
	C824.203186,361.466919 825.326355,360.844879 826.418152,360.171936 
	C830.995483,357.350616 833.686340,353.441498 833.476196,347.866364 
	C833.258911,342.103302 830.235779,338.218628 825.232117,335.754852 
	C815.875854,331.147827 803.172852,333.472839 795.542358,341.378723 
	C796.796692,342.793793 798.074463,344.235352 799.549683,345.899597 
	C804.733276,341.618256 810.330566,339.487122 816.840027,340.550323 
	C822.771912,341.519165 824.984314,344.036407 825.164246,351.023712 
M634.675415,338.153381 
	C633.108643,339.539246 631.541931,340.925110 630.415588,341.921417 
	C631.772949,343.968262 632.851929,345.595367 633.729187,346.918182 
	C636.835266,344.892639 639.084229,343.127136 641.584656,341.856415 
	C647.115417,339.045837 654.519470,339.984100 657.892395,343.669098 
	C661.286316,347.376984 661.538452,353.235321 658.357239,359.081543 
	C657.251282,361.113892 655.989624,363.170288 654.378723,364.800262 
	C647.365234,371.896942 640.121704,378.766968 633.141846,385.895721 
	C631.557678,387.513672 630.692932,389.836090 628.916870,392.803680 
	C644.145508,392.803680 657.562988,392.803680 670.918579,392.803680 
	C672.355103,386.698730 672.118774,386.342957 666.670227,386.324493 
	C661.838989,386.308105 657.007690,386.329559 652.176392,386.332855 
	C649.683838,386.334564 647.191223,386.333160 644.698669,386.333160 
	C644.325317,385.665558 643.951965,384.997955 643.578674,384.330353 
	C646.005432,382.386108 648.786194,380.748932 650.790466,378.438202 
	C656.105469,372.310547 662.139282,366.468170 665.968567,359.463531 
	C672.953613,346.685913 664.931458,333.754944 650.403015,333.853607 
	C645.353210,333.887878 640.320129,336.384552 634.675415,338.153381 
M769.934204,353.093201 
	C767.678162,357.291809 766.117310,362.115448 763.021362,365.558899 
	C756.586548,372.716156 749.262146,379.066772 742.479858,385.923523 
	C740.884521,387.536346 739.989990,389.842468 738.255066,392.675476 
	C753.551453,392.675476 767.092346,392.675476 780.697144,392.675476 
	C780.697144,390.513275 780.697144,388.741882 780.697144,386.319763 
	C771.646790,386.319763 762.836670,386.319763 754.026611,386.319763 
	C753.467773,385.538727 752.908997,384.757690 752.350159,383.976654 
	C754.335999,382.791840 756.608826,381.913513 758.258057,380.369202 
	C765.428589,373.654724 772.658142,366.898590 776.376770,357.476166 
	C780.515625,346.989136 775.364563,336.620300 764.495728,334.223816 
	C754.702332,332.064484 746.167175,334.737396 739.376709,342.477692 
	C740.767212,344.149323 742.008362,345.641510 743.424866,347.344421 
	C749.706543,340.925049 756.549622,338.437592 764.370056,341.520691 
	C768.912109,343.311310 770.164978,347.616852 769.934204,353.093201 
M772.337769,433.834412 
	C772.907043,434.612000 773.476379,435.389587 774.691528,437.049438 
	C774.691528,429.443481 774.691528,423.295959 774.691528,417.148438 
	C774.182983,417.084320 773.674438,417.020203 773.165833,416.956116 
	C772.729675,419.578461 772.293457,422.200806 771.831970,424.975006 
	C769.263855,424.975006 766.705872,424.975006 764.466797,424.975006 
	C763.859741,422.133026 763.328308,419.645203 762.796875,417.157410 
	C762.296387,417.260925 761.795898,417.364410 761.295410,417.467896 
	C761.295410,423.611511 761.295410,429.755096 761.295410,435.898682 
	C761.892395,436.000641 762.489380,436.102570 763.086304,436.204498 
	C763.516174,433.346375 763.945984,430.488281 764.353210,427.780640 
	C767.005920,427.780640 769.439148,427.780640 772.329102,427.780640 
	C772.329102,429.700287 772.329102,431.328796 772.337769,433.834412 
M677.117432,425.571533 
	C674.937927,422.591492 672.758484,419.611450 669.898865,415.701477 
	C667.955872,426.713379 668.700317,434.544678 672.049683,436.070343 
	C672.049683,431.809875 672.049683,427.836700 672.049683,422.791199 
	C675.820374,428.075989 678.817017,432.275970 681.813660,436.475983 
	C682.118347,436.192993 682.422974,435.910034 682.727661,435.627075 
	C682.727661,429.477966 682.727661,423.328857 682.727661,417.179749 
	C682.219971,417.165771 681.712280,417.151794 681.204590,417.137817 
	C680.969849,421.127960 680.735107,425.118103 680.425049,430.389435 
	C678.945862,428.312317 678.220398,427.293579 677.117432,425.571533 
M620.896423,425.573578 
	C620.896423,428.977478 620.896423,432.381348 620.896423,435.857880 
	C626.686523,435.941040 632.693176,437.272919 635.211853,431.465698 
	C636.508728,428.475616 636.213623,423.626068 634.587524,420.794067 
	C631.697449,415.760742 626.070862,417.064362 620.897034,417.424133 
	C620.897034,420.006378 620.897034,422.324615 620.896423,425.573578 
M652.627441,430.951141 
	C652.113464,432.549438 651.599487,434.147736 651.085449,435.746002 
	C656.504822,429.906891 661.494751,430.201141 666.749695,436.376007 
	C664.972839,430.220276 663.071960,424.984344 661.038147,419.800568 
	C660.664429,418.847992 659.750854,418.107208 659.086426,417.268707 
	C658.318176,418.189758 657.284424,418.996796 656.830872,420.053009 
	C655.399353,423.386322 654.185242,426.812958 652.627441,430.951141 
M612.389587,431.269135 
	C612.184509,428.341248 609.813660,425.664001 611.865356,422.315399 
	C612.244446,421.696564 609.552795,418.194489 607.710999,417.473877 
	C605.477539,416.600098 602.641479,417.266541 600.030518,417.266541 
	C600.030518,423.758759 600.030518,429.698517 600.030518,436.143555 
	C604.439880,435.035248 609.774902,438.224884 612.389587,431.269135 
M584.980286,426.336731 
	C583.898987,429.421570 582.817749,432.506439 581.736511,435.591309 
	C588.460571,431.408295 588.460571,431.408295 597.945068,436.457092 
	C595.210449,429.232300 592.856689,423.013550 590.502930,416.794800 
	C589.857483,416.894104 589.212036,416.993378 588.566589,417.092682 
	C587.453186,419.927612 586.339844,422.762512 584.980286,426.336731 
M716.349548,429.883179 
	C716.296936,429.300476 716.006104,428.329163 716.227478,428.193390 
	C719.476990,426.201172 720.645508,422.844025 718.653503,420.195862 
	C717.240662,418.317719 713.643616,417.992798 710.952576,417.212311 
	C709.944946,416.920044 708.742188,417.300415 707.700317,417.369354 
	C706.174683,427.192902 706.814392,434.264832 709.575684,435.971344 
	C709.881287,433.395172 710.170776,430.955139 710.601135,427.326904 
	C713.717896,430.938721 716.028320,433.616180 718.338806,436.293640 
	C718.711060,435.923157 719.083252,435.552643 719.455444,435.182129 
	C718.591248,433.593536 717.726990,432.004944 716.349548,429.883179 
M749.467529,417.037170 
	C743.372070,417.758698 740.191284,420.973969 740.117065,426.488922 
	C740.054199,431.162079 743.107483,435.144653 747.343689,435.915039 
	C752.464905,436.846436 755.826111,434.964630 757.946472,429.032043 
	C756.028870,430.345825 754.849121,430.973022 753.890625,431.843781 
	C750.707947,434.734955 747.550049,434.450531 744.632568,431.656464 
	C742.197754,429.324707 742.160278,424.014771 744.536255,421.579437 
	C747.368408,418.676483 750.488220,418.302521 753.768982,421.096375 
	C754.805420,421.979034 756.111145,422.545471 757.293640,423.256622 
	C757.662292,422.592560 758.030945,421.928497 758.399597,421.264435 
	C755.690918,419.857239 752.982178,418.450073 749.467529,417.037170 
M722.114624,422.674072 
	C722.114624,426.948029 722.114624,431.221954 722.114624,435.417542 
	C725.848999,435.417542 729.062378,435.417542 732.275818,435.417542 
	C732.298645,435.004639 732.321472,434.591736 732.344360,434.178833 
	C730.028076,433.945618 727.711792,433.712372 725.369507,433.476501 
	C725.369507,431.604218 725.369507,429.745819 725.369507,427.977234 
	C727.695068,427.729431 729.670044,427.518982 731.645020,427.308533 
	C731.643311,426.783264 731.641541,426.258026 731.639832,425.732758 
	C729.524597,425.483093 727.409302,425.233429 725.264771,424.980316 
	C725.264771,423.032715 725.264771,421.284485 725.264771,419.552002 
	C727.767883,419.279694 730.038635,419.032684 732.309387,418.785675 
	C732.280762,418.390625 732.252136,417.995544 732.223511,417.600494 
	C729.089355,417.600494 725.955200,417.600494 722.395081,417.600494 
	C722.309021,418.853790 722.210388,420.291016 722.114624,422.674072 
M787.639587,426.003510 
	C786.941772,427.680206 786.244019,429.356903 785.432251,431.307373 
	C782.109924,426.682495 782.435425,420.654022 777.838684,417.383392 
	C779.144043,423.247498 781.098999,428.773804 783.378296,434.162964 
	C783.707764,434.942017 786.603088,435.466888 786.617676,435.430481 
	C788.987854,429.518860 791.202759,423.545044 793.424011,417.573730 
	C792.779602,417.315918 792.135254,417.058136 791.490906,416.800323 
	C790.293640,419.621185 789.096375,422.442017 787.639587,426.003510 
M704.275452,418.994263 
	C704.244812,418.465790 704.222290,417.475250 704.182251,417.474548 
	C700.219788,417.404205 696.256104,417.408875 692.292419,417.408875 
	C692.257446,417.808838 692.222534,418.208771 692.187561,418.608734 
	C693.773499,418.987183 695.359497,419.365631 696.874939,419.727264 
	C697.697449,425.232880 696.273254,430.835358 698.891602,435.953278 
	C700.025696,431.367920 700.205078,426.854736 699.960815,422.364594 
	C699.805176,419.504181 701.093201,418.932007 704.275452,418.994263 
M647.164429,434.384644 
	C647.532471,428.680389 647.900452,422.976135 648.268494,417.271881 
	C647.401428,417.239746 646.534424,417.207581 645.667358,417.175415 
	C645.667358,420.963928 645.865967,424.767517 645.579468,428.534241 
	C645.445984,430.289154 644.372070,431.972595 643.724426,433.688446 
	C642.536133,432.776215 641.390381,431.798401 640.137451,430.985870 
	C639.672668,430.684448 638.956421,430.770782 638.258179,430.665741 
	C639.229980,436.115662 640.942566,436.951874 647.164429,434.384644 
M737.264587,422.838226 
	C737.068787,420.939728 736.872986,419.041260 736.677124,417.142761 
	C736.327454,417.206177 735.977722,417.269592 735.628052,417.333008 
	C735.628052,423.511200 735.628052,429.689392 735.628052,435.867615 
	C736.171936,435.866364 736.715820,435.865112 737.259705,435.863861 
	C737.259705,431.824280 737.259705,427.784698 737.264587,422.838226 
M795.279724,430.286011 
	C795.478943,432.208710 795.678162,434.131409 795.877441,436.054108 
	C796.375305,435.968811 796.873230,435.883484 797.371094,435.798187 
	C797.371094,429.585846 797.371094,423.373474 797.371094,417.161133 
	C796.673889,417.137512 795.976746,417.113861 795.279541,417.090240 
	C795.279541,421.175262 795.279541,425.260284 795.279724,430.286011 
M615.281494,420.918121 
	C615.220337,434.281860 615.220337,434.281860 617.560547,435.998383 
	C617.560547,429.615265 617.560547,423.433289 617.560547,417.251312 
	C617.132935,417.161682 616.705383,417.072021 616.277771,416.982391 
	C615.942993,417.994843 615.608215,419.007294 615.281494,420.918121 
z"/>
<path fill="#FAFAFA" opacity="1.000000" stroke="none" 
	d="
M408.019958,341.989288 
	C414.823761,341.989288 421.131775,341.989288 427.724182,341.989288 
	C427.724182,345.453583 427.724182,348.698486 427.724182,352.357971 
	C418.421997,352.357971 409.112152,352.515686 399.812500,352.276276 
	C396.344452,352.186981 395.445404,353.392731 394.935089,356.694672 
	C391.766724,377.194794 388.194275,397.632263 384.982483,418.126007 
	C383.138763,429.890472 370.420654,439.153198 360.117218,439.968414 
	C354.798340,440.389313 349.382965,439.590790 343.161072,439.304077 
	C344.505096,435.497406 345.080261,432.683594 346.503418,430.397736 
	C347.106049,429.429779 349.475861,429.478027 351.068054,429.225677 
	C356.026489,428.439819 361.323730,428.557861 365.871796,426.761383 
	C370.479004,424.941498 373.615753,420.905396 374.528717,415.411102 
	C377.978088,394.652557 381.659485,373.932587 385.389282,352.418152 
	C377.783112,352.418152 371.216034,352.418152 364.517212,352.418152 
	C364.517212,348.693298 364.517212,345.593353 364.517212,342.075836 
	C371.797852,342.075836 378.887756,342.075836 386.277039,342.075836 
	C388.424164,330.162811 392.335663,319.580597 403.579529,313.611298 
	C411.298889,309.513092 419.499298,308.429230 428.463898,309.414581 
	C428.120483,313.036346 427.812958,316.279572 427.468140,319.916016 
	C418.713989,319.738434 409.830994,319.597168 403.935791,326.872742 
	C400.648895,330.929352 398.890594,336.224487 395.912415,341.989288 
	C400.960785,341.989288 404.242493,341.989288 408.019958,341.989288 
z"/>
<path fill="#F8F8F8" opacity="1.000000" stroke="none" 
	d="
M207.400604,394.082458 
	C190.572372,395.663116 180.921082,382.153503 182.462357,363.706238 
	C183.559769,350.571442 191.147263,341.300690 203.099518,339.737122 
	C208.471039,339.034454 214.218231,341.203430 219.943390,342.092407 
	C219.943390,334.659637 219.943390,326.096893 219.943390,317.360718 
	C223.540039,317.360718 226.831619,317.360718 230.507828,317.360718 
	C230.507828,342.447357 230.507828,367.457306 230.507828,392.740051 
	C227.659744,392.740051 224.745804,392.740051 221.482758,392.740051 
	C221.208008,391.447113 220.922653,390.104279 220.719467,389.148102 
	C216.314163,390.821930 212.056961,392.439453 207.400604,394.082458 
M214.642395,350.645325 
	C206.822845,347.545380 200.353363,349.188629 196.580536,355.817261 
	C192.338928,363.269501 192.648254,371.137390 196.396729,378.646851 
	C198.929169,383.720245 205.040039,385.610840 211.070602,383.964630 
	C217.032990,382.336975 219.869431,378.530365 219.869324,372.156525 
	C219.869247,367.841370 219.572586,363.499695 219.955139,359.218719 
	C220.314514,355.197235 218.984116,352.543640 214.642395,350.645325 
z"/>
<path fill="#F8F8F8" opacity="1.000000" stroke="none" 
	d="
M294.394104,356.621948 
	C294.810303,361.272095 295.080963,365.542999 295.383514,370.316833 
	C281.952301,370.316833 269.214111,370.316833 256.497650,370.316833 
	C256.090118,384.044128 271.451843,388.463989 289.564941,380.060913 
	C290.855927,382.462646 292.156799,384.882782 293.426941,387.245758 
	C277.198730,399.898132 253.505615,395.273712 246.590988,378.081421 
	C242.395569,367.650116 243.366623,357.293793 250.838760,348.563354 
	C258.196960,339.966034 267.933929,337.384369 278.844849,340.293060 
	C287.044006,342.478790 292.307739,347.841614 294.394104,356.621948 
M258.615601,355.273438 
	C257.732758,357.085663 256.849915,358.897919 255.902191,360.843384 
	C265.958496,360.843384 275.300995,360.843384 284.724121,360.843384 
	C284.032898,355.425537 281.937988,351.029724 276.820038,349.510895 
	C270.023346,347.493835 263.696777,348.589020 258.615601,355.273438 
z"/>
<path fill="#F8F8F8" opacity="1.000000" stroke="none" 
	d="
M458.745483,339.179657 
	C476.048126,342.507263 484.224457,354.579315 479.897644,370.373260 
	C467.425323,370.373260 454.834106,370.373260 442.259155,370.373260 
	C441.915192,384.275757 457.259979,388.734467 475.115997,380.067780 
	C476.463409,382.435486 477.823395,384.825287 479.161224,387.176178 
	C468.125336,395.824249 451.958679,396.681030 441.218567,389.367401 
	C431.845947,382.984985 427.613373,370.016296 431.069244,358.269623 
	C434.531525,346.501251 444.738312,339.332245 458.745483,339.179657 
M446.739136,361.156921 
	C454.506348,361.156921 462.273590,361.156921 470.073914,361.156921 
	C469.334656,352.927246 465.154327,349.093628 457.675201,348.640442 
	C450.218933,348.188568 442.218658,354.091888 442.372040,361.155487 
	C443.513428,361.155487 444.663300,361.155487 446.739136,361.156921 
z"/>
<path fill="#F7F7F7" opacity="1.000000" stroke="none" 
	d="
M502.563934,366.489624 
	C496.653351,363.291992 493.955719,358.733032 494.977539,352.341003 
	C495.992584,345.991241 500.402374,342.683563 506.072052,340.856293 
	C517.714539,337.104004 528.300476,339.927948 538.698486,346.501282 
	C536.804016,349.088959 535.012756,351.535583 533.118347,354.123169 
	C526.404114,349.551910 519.359985,347.328552 511.710480,349.105927 
	C509.543579,349.609406 507.818420,352.014130 505.890625,353.546875 
	C507.445404,355.374969 508.657440,358.119812 510.621185,358.853912 
	C515.862244,360.813202 521.485413,361.718597 526.849731,363.386841 
	C537.609314,366.732971 541.204529,370.804626 540.895874,378.745026 
	C540.617920,385.894836 535.274048,391.581146 525.662231,393.450195 
	C513.203064,395.872955 501.647949,393.142090 491.145782,385.549896 
	C492.949890,382.902863 494.621490,380.450226 496.412079,377.823029 
	C503.205627,382.668213 510.560944,385.305756 518.804321,385.061371 
	C520.130615,385.022034 521.500549,385.039001 522.768066,384.711639 
	C526.042725,383.865936 530.104004,382.674896 529.472290,378.773804 
	C529.102478,376.489624 525.804504,373.869934 523.254822,372.906097 
	C516.622986,370.399017 509.676941,368.723083 502.563934,366.489624 
z"/>
<path fill="#FAFAFA" opacity="1.000000" stroke="none" 
	d="
M597.859375,350.011169 
	C591.232300,350.011200 585.091309,350.011200 579.022766,350.011200 
	C579.022766,359.491150 578.625793,368.732330 579.308655,377.893005 
	C579.474426,380.115753 583.008972,383.562256 585.323547,383.856354 
	C590.889160,384.563690 596.649719,383.736084 602.914185,383.506317 
	C603.394958,385.024963 604.181763,387.510468 605.181458,390.668182 
	C595.875061,394.523438 586.429016,396.178833 576.994873,392.025543 
	C568.853027,388.441223 567.479492,380.670532 567.338562,372.738953 
	C567.206421,365.301514 567.310242,357.859894 567.310242,350.060089 
	C562.486511,350.060089 558.054199,350.060089 553.371338,350.060089 
	C553.371338,346.966156 553.371338,344.229431 553.371338,340.921814 
	C557.969238,340.921814 562.547119,340.921814 567.487671,340.921814 
	C568.063538,335.203888 568.588623,329.990265 569.135925,324.556122 
	C572.031250,324.556122 574.803833,324.556122 578.074097,324.556122 
	C578.074097,329.606018 578.074097,334.669525 578.074097,340.415283 
	C586.573975,340.415283 594.614746,340.415283 602.787109,340.415283 
	C602.787109,343.882233 602.787109,346.666809 602.787109,349.769897 
	C601.235535,349.854187 599.790527,349.932648 597.859375,350.011169 
z"/>
<path fill="#F8F8F8" opacity="1.000000" stroke="none" 
	d="
M340.399323,385.509216 
	C337.137817,393.343933 337.137817,393.343933 325.860748,392.853668 
	C318.665710,375.827667 311.398926,358.631866 303.794189,340.636353 
	C307.222595,340.636353 310.329224,340.355530 313.338654,340.773895 
	C314.549988,340.942291 316.050232,342.435211 316.565796,343.678955 
	C321.636841,355.911987 326.528046,368.219513 331.658722,380.974365 
	C335.171692,372.323456 338.596588,363.888367 342.022461,355.453613 
	C342.957214,353.152100 343.893616,350.851318 344.831268,348.550964 
	C348.516144,339.511047 348.516449,339.511169 358.769897,341.215881 
	C352.688995,355.900757 346.630249,370.532074 340.399323,385.509216 
z"/>
<path fill="#D64539" opacity="1.000000" stroke="none" 
	d="
M696.951355,392.185333 
	C689.863464,387.800751 686.376526,381.114197 685.907837,373.740417 
	C685.367981,365.247040 685.838135,356.478546 687.410095,348.119202 
	C689.091125,339.179718 696.512634,333.891205 704.835022,333.619843 
	C714.518982,333.304047 720.997192,337.455322 724.374023,346.696075 
	C728.393372,357.695465 728.385315,368.928772 724.737671,379.984283 
	C720.591614,392.550354 709.713623,397.273834 696.951355,392.185333 
M692.271240,359.914001 
	C692.942566,365.980957 693.064636,372.175293 694.434326,378.080261 
	C695.906799,384.427917 700.716858,387.854431 706.104065,387.860626 
	C711.361694,387.866638 715.518311,384.737885 717.606506,378.498901 
	C720.800049,368.957581 720.890747,359.229095 717.766907,349.674988 
	C715.510071,342.772308 711.248169,339.752441 705.500488,340.062897 
	C699.879395,340.366455 695.869141,344.020599 694.026550,350.765259 
	C693.286865,353.472748 692.883118,356.272003 692.271240,359.914001 
z"/>
<path fill="#D64539" opacity="1.000000" stroke="none" 
	d="
M825.239990,350.621277 
	C824.984314,344.036407 822.771912,341.519165 816.840027,340.550323 
	C810.330566,339.487122 804.733276,341.618256 799.549683,345.899597 
	C798.074463,344.235352 796.796692,342.793793 795.542358,341.378723 
	C803.172852,333.472839 815.875854,331.147827 825.232117,335.754852 
	C830.235779,338.218628 833.258911,342.103302 833.476196,347.866364 
	C833.686340,353.441498 830.995483,357.350616 826.418152,360.171936 
	C825.326355,360.844879 824.203186,361.466919 822.671692,362.358521 
	C824.394653,363.302338 825.658081,363.988678 826.916199,364.684509 
	C838.285278,370.972717 838.554565,384.280670 827.450745,391.055359 
	C817.320801,397.235901 801.113831,394.793976 793.367188,385.621002 
	C794.480957,384.186127 795.651794,382.677704 797.016907,380.919006 
	C803.190002,386.143005 809.877563,388.417297 817.579163,387.206421 
	C822.756958,386.392334 826.737854,382.890137 827.238159,378.572784 
	C827.846130,373.326385 825.425659,369.608826 819.758118,367.772217 
	C816.941956,366.859650 813.931824,366.049835 811.013306,366.062836 
	C806.397827,366.083435 805.482666,364.167816 806.900269,360.051056 
	C813.688171,358.557220 822.065125,360.009796 825.239990,350.621277 
z"/>
<path fill="#D64539" opacity="1.000000" stroke="none" 
	d="
M634.977417,337.955017 
	C640.320129,336.384552 645.353210,333.887878 650.403015,333.853607 
	C664.931458,333.754944 672.953613,346.685913 665.968567,359.463531 
	C662.139282,366.468170 656.105469,372.310547 650.790466,378.438202 
	C648.786194,380.748932 646.005432,382.386108 643.578674,384.330353 
	C643.951965,384.997955 644.325317,385.665558 644.698669,386.333160 
	C647.191223,386.333160 649.683838,386.334564 652.176392,386.332855 
	C657.007690,386.329559 661.838989,386.308105 666.670227,386.324493 
	C672.118774,386.342957 672.355103,386.698730 670.918579,392.803680 
	C657.562988,392.803680 644.145508,392.803680 628.916870,392.803680 
	C630.692932,389.836090 631.557678,387.513672 633.141846,385.895721 
	C640.121704,378.766968 647.365234,371.896942 654.378723,364.800262 
	C655.989624,363.170288 657.251282,361.113892 658.357239,359.081543 
	C661.538452,353.235321 661.286316,347.376984 657.892395,343.669098 
	C654.519470,339.984100 647.115417,339.045837 641.584656,341.856415 
	C639.084229,343.127136 636.835266,344.892639 633.729187,346.918182 
	C632.851929,345.595367 631.772949,343.968262 630.415588,341.921417 
	C631.541931,340.925110 633.108643,339.539246 634.977417,337.955017 
z"/>
<path fill="#D64539" opacity="1.000000" stroke="none" 
	d="
M769.969482,352.686890 
	C770.164978,347.616852 768.912109,343.311310 764.370056,341.520691 
	C756.549622,338.437592 749.706543,340.925049 743.424866,347.344421 
	C742.008362,345.641510 740.767212,344.149323 739.376709,342.477692 
	C746.167175,334.737396 754.702332,332.064484 764.495728,334.223816 
	C775.364563,336.620300 780.515625,346.989136 776.376770,357.476166 
	C772.658142,366.898590 765.428589,373.654724 758.258057,380.369202 
	C756.608826,381.913513 754.335999,382.791840 752.350159,383.976654 
	C752.908997,384.757690 753.467773,385.538727 754.026611,386.319763 
	C762.836670,386.319763 771.646790,386.319763 780.697144,386.319763 
	C780.697144,388.741882 780.697144,390.513275 780.697144,392.675476 
	C767.092346,392.675476 753.551453,392.675476 738.255066,392.675476 
	C739.989990,389.842468 740.884521,387.536346 742.479858,385.923523 
	C749.262146,379.066772 756.586548,372.716156 763.021362,365.558899 
	C766.117310,362.115448 767.678162,357.291809 769.969482,352.686890 
z"/>
<path fill="#D0D0D0" opacity="1.000000" stroke="none" 
	d="
M772.333435,433.395874 
	C772.329102,431.328796 772.329102,429.700287 772.329102,427.780640 
	C769.439148,427.780640 767.005920,427.780640 764.353210,427.780640 
	C763.945984,430.488281 763.516174,433.346375 763.086304,436.204498 
	C762.489380,436.102570 761.892395,436.000641 761.295410,435.898682 
	C761.295410,429.755096 761.295410,423.611511 761.295410,417.467896 
	C761.795898,417.364410 762.296387,417.260925 762.796875,417.157410 
	C763.328308,419.645203 763.859741,422.133026 764.466797,424.975006 
	C766.705872,424.975006 769.263855,424.975006 771.831970,424.975006 
	C772.293457,422.200806 772.729675,419.578461 773.165833,416.956116 
	C773.674438,417.020203 774.182983,417.084320 774.691528,417.148438 
	C774.691528,423.295959 774.691528,429.443481 774.691528,437.049438 
	C773.476379,435.389587 772.907043,434.612000 772.333435,433.395874 
z"/>
<path fill="#E5E5E5" opacity="1.000000" stroke="none" 
	d="
M677.306213,425.923218 
	C678.220398,427.293579 678.945862,428.312317 680.425049,430.389435 
	C680.735107,425.118103 680.969849,421.127960 681.204590,417.137817 
	C681.712280,417.151794 682.219971,417.165771 682.727661,417.179749 
	C682.727661,423.328857 682.727661,429.477966 682.727661,435.627075 
	C682.422974,435.910034 682.118347,436.192993 681.813660,436.475983 
	C678.817017,432.275970 675.820374,428.075989 672.049683,422.791199 
	C672.049683,427.836700 672.049683,431.809875 672.049683,436.070343 
	C668.700317,434.544678 667.955872,426.713379 669.898865,415.701477 
	C672.758484,419.611450 674.937927,422.591492 677.306213,425.923218 
z"/>
<path fill="#DBDBDB" opacity="1.000000" stroke="none" 
	d="
M620.896729,425.108215 
	C620.897034,422.324615 620.897034,420.006378 620.897034,417.424133 
	C626.070862,417.064362 631.697449,415.760742 634.587524,420.794067 
	C636.213623,423.626068 636.508728,428.475616 635.211853,431.465698 
	C632.693176,437.272919 626.686523,435.941040 620.896423,435.857880 
	C620.896423,432.381348 620.896423,428.977478 620.896729,425.108215 
M633.531921,429.643921 
	C634.539185,421.740570 632.074341,419.079895 623.830872,419.642303 
	C623.830872,421.890259 623.830811,424.170471 623.830811,426.450684 
	C623.830811,428.865540 623.830872,431.280426 623.830872,435.576996 
	C627.791626,433.323212 630.441833,431.815155 633.531921,429.643921 
z"/>
<path fill="#DBDBDB" opacity="1.000000" stroke="none" 
	d="
M652.757202,430.577332 
	C654.185242,426.812958 655.399353,423.386322 656.830872,420.053009 
	C657.284424,418.996796 658.318176,418.189758 659.086426,417.268677 
	C659.750854,418.107208 660.664429,418.847992 661.038147,419.800568 
	C663.071960,424.984344 664.972839,430.220276 666.749695,436.376007 
	C661.494751,430.201141 656.504822,429.906891 651.085449,435.746002 
	C651.599487,434.147736 652.113464,432.549438 652.757202,430.577332 
z"/>
<path fill="#E5E5E5" opacity="1.000000" stroke="none" 
	d="
M612.341919,431.645782 
	C609.774902,438.224884 604.439880,435.035248 600.030518,436.143555 
	C600.030518,429.698517 600.030518,423.758759 600.030518,417.266541 
	C602.641479,417.266541 605.477539,416.600098 607.710999,417.473877 
	C609.552795,418.194489 612.244446,421.696564 611.865356,422.315399 
	C609.813660,425.664001 612.184509,428.341248 612.341919,431.645782 
M609.887756,429.776459 
	C607.657166,428.742279 605.426575,427.708099 602.602295,426.398651 
	C602.602295,429.792297 602.602295,431.670502 602.602295,433.691071 
	C605.774231,433.751923 608.962280,434.718872 609.887756,429.776459 
M602.331299,421.033783 
	C602.398682,422.302643 602.466064,423.571533 602.540588,424.974884 
	C603.835815,425.043915 604.965576,425.432068 605.754944,425.072693 
	C607.080933,424.468933 608.190369,423.389648 609.390930,422.510468 
	C608.165222,421.466736 607.071655,420.129974 605.661926,419.494232 
	C604.874573,419.139160 603.562256,419.948273 602.331299,421.033783 
z"/>
<path fill="#DBDBDB" opacity="1.000000" stroke="none" 
	d="
M585.103394,425.967102 
	C586.339844,422.762512 587.453186,419.927612 588.566589,417.092682 
	C589.212036,416.993378 589.857483,416.894104 590.502930,416.794800 
	C592.856689,423.013550 595.210449,429.232300 597.945068,436.457092 
	C588.460571,431.408295 588.460571,431.408295 581.736511,435.591309 
	C582.817749,432.506439 583.898987,429.421570 585.103394,425.967102 
z"/>
<path fill="#DBDBDB" opacity="1.000000" stroke="none" 
	d="
M716.606201,430.149780 
	C717.726990,432.004944 718.591248,433.593536 719.455444,435.182129 
	C719.083252,435.552643 718.711060,435.923157 718.338806,436.293640 
	C716.028320,433.616180 713.717896,430.938721 710.601135,427.326904 
	C710.170776,430.955139 709.881287,433.395172 709.575684,435.971344 
	C706.814392,434.264832 706.174683,427.192902 707.700317,417.369354 
	C708.742188,417.300415 709.944946,416.920044 710.952576,417.212311 
	C713.643616,417.992798 717.240662,418.317719 718.653503,420.195862 
	C720.645508,422.844025 719.476990,426.201172 716.227478,428.193390 
	C716.006104,428.329163 716.296936,429.300476 716.606201,430.149780 
M711.471436,426.024475 
	C713.950684,425.976318 717.299988,426.197571 716.677917,422.727295 
	C716.380859,421.070038 713.143372,419.939850 711.237732,418.570923 
	C710.770386,419.003906 710.302979,419.436859 709.835571,419.869843 
	C710.092834,421.894775 710.350037,423.919678 711.471436,426.024475 
z"/>
<path fill="#DBDBDB" opacity="1.000000" stroke="none" 
	d="
M749.870483,417.040039 
	C752.982178,418.450073 755.690918,419.857239 758.399597,421.264435 
	C758.030945,421.928497 757.662292,422.592560 757.293640,423.256622 
	C756.111145,422.545471 754.805420,421.979034 753.768982,421.096375 
	C750.488220,418.302521 747.368408,418.676483 744.536255,421.579437 
	C742.160278,424.014771 742.197754,429.324707 744.632568,431.656464 
	C747.550049,434.450531 750.707947,434.734955 753.890625,431.843781 
	C754.849121,430.973022 756.028870,430.345825 757.946472,429.032043 
	C755.826111,434.964630 752.464905,436.846436 747.343689,435.915039 
	C743.107483,435.144653 740.054199,431.162079 740.117065,426.488922 
	C740.191284,420.973969 743.372070,417.758698 749.870483,417.040039 
z"/>
<path fill="#D0D0D0" opacity="1.000000" stroke="none" 
	d="
M821.069702,435.302490 
	C821.654541,434.052185 822.687744,432.821625 822.743652,431.548065 
	C822.947327,426.913208 822.824158,422.264008 822.824158,417.619934 
	C826.395874,417.619934 829.645935,417.619934 832.895996,417.619934 
	C832.925354,418.040710 832.954712,418.461456 832.984070,418.882233 
	C830.704224,419.090454 828.424377,419.298706 825.934326,419.526154 
	C825.934326,421.369415 825.934326,423.127594 825.934326,424.989349 
	C828.164673,425.228729 830.158875,425.442810 832.153076,425.656860 
	C832.188477,426.151337 832.223816,426.645844 832.259216,427.140320 
	C830.240173,427.464569 828.221191,427.788818 825.940125,428.155151 
	C825.940125,429.872589 825.940125,431.625641 825.940125,433.489166 
	C828.436340,433.708221 830.743408,433.910645 833.050537,434.113098 
	C832.968689,434.836853 832.886841,435.560638 832.804993,436.284393 
	C829.217957,435.733795 825.630981,435.183167 821.567749,434.859619 
	C821.091614,435.086700 821.069702,435.302490 821.069702,435.302490 
z"/>
<path fill="#D0D0D0" opacity="1.000000" stroke="none" 
	d="
M722.113159,422.201172 
	C722.210388,420.291016 722.309021,418.853790 722.395081,417.600494 
	C725.955200,417.600494 729.089355,417.600494 732.223511,417.600494 
	C732.252136,417.995544 732.280762,418.390625 732.309387,418.785675 
	C730.038635,419.032684 727.767883,419.279694 725.264771,419.552002 
	C725.264771,421.284485 725.264771,423.032715 725.264771,424.980316 
	C727.409302,425.233429 729.524597,425.483093 731.639832,425.732758 
	C731.641541,426.258026 731.643311,426.783264 731.645020,427.308533 
	C729.670044,427.518982 727.695068,427.729431 725.369507,427.977234 
	C725.369507,429.745819 725.369507,431.604218 725.369507,433.476501 
	C727.711792,433.712372 730.028076,433.945618 732.344360,434.178833 
	C732.321472,434.591736 732.298645,435.004639 732.275818,435.417542 
	C729.062378,435.417542 725.848999,435.417542 722.114624,435.417542 
	C722.114624,431.221954 722.114624,426.948029 722.113159,422.201172 
z"/>
<path fill="#DBDBDB" opacity="1.000000" stroke="none" 
	d="
M787.769348,425.633179 
	C789.096375,422.442017 790.293640,419.621185 791.490906,416.800323 
	C792.135254,417.058136 792.779602,417.315918 793.424011,417.573730 
	C791.202759,423.545044 788.987854,429.518860 786.617676,435.430481 
	C786.603088,435.466888 783.707764,434.942017 783.378296,434.162964 
	C781.098999,428.773804 779.144043,423.247498 777.838684,417.383392 
	C782.435425,420.654022 782.109924,426.682495 785.432251,431.307373 
	C786.244019,429.356903 786.941772,427.680206 787.769348,425.633179 
z"/>
<path fill="#E5E5E5" opacity="1.000000" stroke="none" 
	d="
M820.832886,434.883270 
	C821.069702,435.302490 821.091614,435.086700 821.088257,435.035095 
	C817.712952,434.762360 814.341064,434.541199 810.450073,434.497772 
	C809.931091,434.675507 809.954529,434.929718 809.954529,434.929718 
	C810.561401,433.524597 811.619324,432.142303 811.691650,430.710205 
	C811.918945,426.214661 811.775269,421.700348 811.775269,417.193329 
	C812.397644,417.185425 813.020081,417.177551 813.642456,417.169678 
	C813.642456,422.521820 813.642456,427.873993 813.642456,433.270874 
	C816.522888,433.765137 818.559448,434.114594 820.832886,434.883270 
z"/>
<path fill="#DBDBDB" opacity="1.000000" stroke="none" 
	d="
M809.743408,434.458130 
	C809.954529,434.929718 809.931091,434.675507 809.932251,434.632935 
	C807.144531,435.225616 804.355652,435.860901 801.259033,436.566315 
	C801.259033,429.590790 801.259033,423.463257 801.259033,417.335724 
	C801.851929,417.234344 802.444885,417.132935 803.037781,417.031525 
	C803.305908,419.528809 803.695984,422.020477 803.810547,424.524780 
	C803.945557,427.476288 803.842224,430.438721 803.842224,433.600342 
	C805.990967,433.746185 807.761658,433.866364 809.743408,434.458130 
z"/>
<path fill="#D0D0D0" opacity="1.000000" stroke="none" 
	d="
M703.865906,419.101105 
	C701.093201,418.932007 699.805176,419.504181 699.960815,422.364594 
	C700.205078,426.854736 700.025696,431.367920 698.891602,435.953278 
	C696.273254,430.835358 697.697449,425.232880 696.874939,419.727264 
	C695.359497,419.365631 693.773499,418.987183 692.187561,418.608734 
	C692.222534,418.208771 692.257446,417.808838 692.292419,417.408875 
	C696.256104,417.408875 700.219788,417.404205 704.182251,417.474548 
	C704.222290,417.475250 704.244812,418.465790 703.865906,419.101105 
z"/>
<path fill="#E5E5E5" opacity="1.000000" stroke="none" 
	d="
M646.885986,434.701233 
	C640.942566,436.951874 639.229980,436.115662 638.258179,430.665741 
	C638.956421,430.770782 639.672668,430.684448 640.137451,430.985870 
	C641.390381,431.798401 642.536133,432.776215 643.724426,433.688446 
	C644.372070,431.972595 645.445984,430.289154 645.579468,428.534241 
	C645.865967,424.767517 645.667358,420.963928 645.667358,417.175415 
	C646.534424,417.207581 647.401428,417.239746 648.268494,417.271881 
	C647.900452,422.976135 647.532471,428.680389 646.885986,434.701233 
z"/>
<path fill="#F7F7F7" opacity="1.000000" stroke="none" 
	d="
M737.262146,423.291687 
	C737.259705,427.784698 737.259705,431.824280 737.259705,435.863861 
	C736.715820,435.865112 736.171936,435.866364 735.628052,435.867615 
	C735.628052,429.689392 735.628052,423.511200 735.628052,417.333008 
	C735.977722,417.269592 736.327454,417.206177 736.677124,417.142761 
	C736.872986,419.041260 737.068787,420.939728 737.262146,423.291687 
z"/>
<path fill="#D0D0D0" opacity="1.000000" stroke="none" 
	d="
M795.279663,429.815674 
	C795.279541,425.260284 795.279541,421.175262 795.279541,417.090240 
	C795.976746,417.113861 796.673889,417.137512 797.371094,417.161133 
	C797.371094,423.373474 797.371094,429.585846 797.371094,435.798187 
	C796.873230,435.883484 796.375305,435.968811 795.877441,436.054108 
	C795.678162,434.131409 795.478943,432.208710 795.279663,429.815674 
z"/>
<path fill="#D0D0D0" opacity="1.000000" stroke="none" 
	d="
M615.277466,420.468933 
	C615.608215,419.007294 615.942993,417.994843 616.277771,416.982391 
	C616.705383,417.072021 617.132935,417.161682 617.560547,417.251312 
	C617.560547,423.433289 617.560547,429.615265 617.560547,435.998383 
	C615.220337,434.281860 615.220337,434.281860 615.277466,420.468933 
z"/>
<path fill="#050505" opacity="1.000000" stroke="none" 
	d="
M215.011093,350.783875 
	C218.984116,352.543640 220.314514,355.197235 219.955139,359.218719 
	C219.572586,363.499695 219.869247,367.841370 219.869324,372.156525 
	C219.869431,378.530365 217.032990,382.336975 211.070602,383.964630 
	C205.040039,385.610840 198.929169,383.720245 196.396729,378.646851 
	C192.648254,371.137390 192.338928,363.269501 196.580536,355.817261 
	C200.353363,349.188629 206.822845,347.545380 215.011093,350.783875 
z"/>
<path fill="#050505" opacity="1.000000" stroke="none" 
	d="
M258.814087,354.954956 
	C263.696777,348.589020 270.023346,347.493835 276.820038,349.510895 
	C281.937988,351.029724 284.032898,355.425537 284.724121,360.843384 
	C275.300995,360.843384 265.958496,360.843384 255.902191,360.843384 
	C256.849915,358.897919 257.732758,357.085663 258.814087,354.954956 
z"/>
<path fill="#050505" opacity="1.000000" stroke="none" 
	d="
M446.276123,361.156189 
	C444.663300,361.155487 443.513428,361.155487 442.372040,361.155487 
	C442.218658,354.091888 450.218933,348.188568 457.675201,348.640442 
	C465.154327,349.093628 469.334656,352.927246 470.073914,361.156921 
	C462.273590,361.156921 454.506348,361.156921 446.276123,361.156189 
z"/>
<path fill="#0C0202" opacity="1.000000" stroke="none" 
	d="
M692.298828,359.471741 
	C692.883118,356.272003 693.286865,353.472748 694.026550,350.765259 
	C695.869141,344.020599 699.879395,340.366455 705.500488,340.062897 
	C711.248169,339.752441 715.510071,342.772308 717.766907,349.674988 
	C720.890747,359.229095 720.800049,368.957581 717.606506,378.498901 
	C715.518311,384.737885 711.361694,387.866638 706.104065,387.860626 
	C700.716858,387.854431 695.906799,384.427917 694.434326,378.080261 
	C693.064636,372.175293 692.942566,365.980957 692.298828,359.471741 
M711.580139,361.136566 
	C709.568420,359.782745 707.632629,357.556976 705.519043,357.372894 
	C704.040283,357.244141 701.592834,359.606110 700.858582,361.384430 
	C699.395020,364.928925 701.547974,368.424469 704.826172,369.027191 
	C709.093689,369.811798 711.407532,367.457977 711.580139,361.136566 
z"/>
<path fill="#050505" opacity="1.000000" stroke="none" 
	d="
M633.312012,429.975525 
	C630.441833,431.815155 627.791626,433.323212 623.830872,435.576996 
	C623.830872,431.280426 623.830811,428.865540 623.830811,426.450684 
	C623.830811,424.170471 623.830872,421.890259 623.830872,419.642303 
	C632.074341,419.079895 634.539185,421.740570 633.312012,429.975525 
z"/>
<path fill="#0C0202" opacity="1.000000" stroke="none" 
	d="
M609.933960,430.165314 
	C608.962280,434.718872 605.774231,433.751923 602.602295,433.691071 
	C602.602295,431.670502 602.602295,429.792297 602.602295,426.398651 
	C605.426575,427.708099 607.657166,428.742279 609.933960,430.165314 
z"/>
<path fill="#0C0202" opacity="1.000000" stroke="none" 
	d="
M602.408875,420.633301 
	C603.562256,419.948273 604.874573,419.139160 605.661926,419.494232 
	C607.071655,420.129974 608.165222,421.466736 609.390930,422.510468 
	C608.190369,423.389648 607.080933,424.468933 605.754944,425.072693 
	C604.965576,425.432068 603.835815,425.043915 602.540588,424.974884 
	C602.466064,423.571533 602.398682,422.302643 602.408875,420.633301 
z"/>
<path fill="#050505" opacity="1.000000" stroke="none" 
	d="
M711.039368,425.984558 
	C710.350037,423.919678 710.092834,421.894775 709.835571,419.869843 
	C710.302979,419.436859 710.770386,419.003906 711.237732,418.570923 
	C713.143372,419.939850 716.380859,421.070038 716.677917,422.727295 
	C717.299988,426.197571 713.950684,425.976318 711.039368,425.984558 
z"/>
<path fill="#D64539" opacity="1.000000" stroke="none" 
	d="
M711.720459,361.503784 
	C711.407532,367.457977 709.093689,369.811798 704.826172,369.027191 
	C701.547974,368.424469 699.395020,364.928925 700.858582,361.384430 
	C701.592834,359.606110 704.040283,357.244141 705.519043,357.372894 
	C707.632629,357.556976 709.568420,359.782745 711.720459,361.503784 
z"/>
</svg>