<?xml version="1.0" encoding="UTF-8"?>
<svg id="Calque_1" data-name="Calque 1" xmlns="http://www.w3.org/2000/svg" viewBox="0 0 895.11 352.44">
  <defs>
    <style>
      .cls-1 {
        fill: #e94335;
      }

      .cls-1, .cls-2 {
        stroke-width: 0px;
      }

      .cls-3 {
        fill: none;
        stroke-width: 17px;
      }

      .cls-3, .cls-4, .cls-5 {
        stroke: #fff;
        stroke-miterlimit: 10;
      }

      .cls-4 {
        font-family: Poppins-Light, Poppins;
        font-size: 28.65px;
        font-weight: 300;
      }

      .cls-4, .cls-5 {
        fill: #fff;
      }

      .cls-5 {
        stroke-width: 4px;
      }
    </style>
  </defs>
  <rect class="cls-2" x="-2.67" y="1.33" width="897.78" height="351.11"/>
  <g>
    <g>
      <path class="cls-1" d="m581.62,187.45c21.97-19.42,33.97-30.81,33.97-41.6,0-7.42-4.47-12.61-14.03-12.61-6.1,0-11.39,3.46-15.56,7.73l-4.88-4.78c5.9-5.9,12.31-9.86,21.46-9.86,13.02,0,21.15,7.63,21.15,19.12,0,12.2-12.2,24.31-29.8,40.27,4.07-.3,8.24-.51,12.1-.51h21.25v7.22h-45.66v-4.98Z"/>
      <path class="cls-1" d="m642.44,159.79c0-21.76,8.85-33.46,23.29-33.46s23.29,11.7,23.29,33.46-8.85,33.87-23.29,33.87-23.29-12.31-23.29-33.87Zm38.75,0c0-18.61-6.41-26.65-15.46-26.65s-15.46,8.03-15.46,26.65,6.41,27.05,15.46,27.05,15.46-8.44,15.46-27.05Zm-21.76-.71c0-4.17,2.95-6.71,6.31-6.71s6.31,2.54,6.31,6.71-2.95,6.81-6.31,6.81-6.31-2.54-6.31-6.81Z"/>
      <path class="cls-1" d="m703.66,187.45c21.97-19.42,33.97-30.81,33.97-41.6,0-7.42-4.47-12.61-14.03-12.61-6.1,0-11.39,3.46-15.56,7.73l-4.88-4.78c5.9-5.9,12.31-9.86,21.46-9.86,13.02,0,21.15,7.63,21.15,19.12,0,12.2-12.2,24.31-29.8,40.27,4.07-.3,8.24-.51,12.1-.51h21.25v7.22h-45.66v-4.98Z"/>
      <path class="cls-1" d="m763.05,184.51l4.27-5.49c4.27,4.07,10.27,7.63,18.61,7.63,8.85,0,15.46-4.58,15.46-11.8,0-7.73-6.51-12.92-23.49-12.92v-6.41c15.36,0,21.25-5.29,21.25-12.1,0-6.2-5.39-10.17-13.22-10.17-6.1,0-11.7,2.75-15.97,6.51l-4.48-5.29c5.39-4.68,12.41-8.14,20.75-8.14,12.2,0,21.46,6,21.46,16.48,0,7.83-5.8,12.81-13.83,15.46v.41c8.64,1.83,16.07,7.53,16.07,16.48,0,11.49-10.58,18.51-23.49,18.51-11.19,0-18.61-4.37-23.39-9.15Z"/>
    </g>
    <g>
      <g>
        <path class="cls-5" d="m83.71,163.33c0-18.11,12.03-29.34,25.21-29.34,6.65,0,11.8,2.64,16.73,7.1h.23l-.46-10.2v-21.43h9.51v81.59h-7.79l-.8-7.33h-.34c-4.58,4.7-11.23,8.71-18.22,8.71-14.44,0-24.06-10.54-24.06-29.11Zm41.71,12.83v-27.73c-5.04-4.7-9.74-6.42-14.55-6.42-9.63,0-17.42,8.48-17.42,21.2s6.19,21.2,16.39,21.2c5.5,0,10.66-2.75,15.58-8.25Z"/>
        <path class="cls-5" d="m153.38,163.1c0-18.11,13.52-29.11,28.42-29.11,16.04,0,25.44,10.43,25.44,26.13,0,2.18-.23,4.24-.46,5.73h-47.1v-7.33h41.48l-2.41,2.64c0-13.18-6.53-19.71-16.73-19.71s-19.25,7.79-19.25,21.66,9.4,21.77,21.77,21.77c6.65,0,11.92-2.06,16.96-5.27l3.44,6.19c-5.5,3.67-12.61,6.65-21.54,6.65-16.73,0-30.02-10.77-30.02-29.34Z"/>
        <path class="cls-5" d="m220.07,135.37h9.74l12.83,31.51c2.18,5.62,4.24,11.12,6.19,16.5h.46c1.95-5.39,3.78-10.89,6.07-16.5l12.83-31.51h9.17l-23.15,55.69h-10.66l-23.49-55.69Z"/>
        <path class="cls-5" d="m359.64,163.1c0-18.11,13.52-29.11,28.42-29.11,16.04,0,25.44,10.43,25.44,26.13,0,2.18-.23,4.24-.46,5.73h-47.1v-7.33h41.48l-2.41,2.64c0-13.18-6.53-19.71-16.73-19.71s-19.25,7.79-19.25,21.66,9.4,21.77,21.77,21.77c6.65,0,11.92-2.06,16.96-5.27l3.44,6.19c-5.5,3.67-12.6,6.65-21.54,6.65-16.73,0-30.02-10.77-30.02-29.34Z"/>
        <path class="cls-5" d="m428.74,183.73l4.35-6.3c6.42,4.58,13.98,7.56,24.18,7.56,9.4,0,13.98-3.9,13.98-8.59,0-4.24-2.18-7.22-17.3-10.31-14.55-2.98-21.77-7.91-21.77-16.27,0-8.94,7.91-15.81,23.15-15.81,8.48,0,16.96,3.32,22.46,7.1l-4.58,6.07c-5.16-3.55-11.57-5.84-18.68-5.84-9.4,0-12.84,3.78-12.84,8.02,0,4.81,4.81,6.88,16.27,9.28,18.45,4.01,22.92,8.59,22.92,17.19,0,9.05-8.82,16.62-24.75,16.62-10.89,0-20.63-4.01-27.39-8.71Z"/>
        <path class="cls-5" d="m512.96,169.41v-26.36h-15.81v-7.1l16.16-.57,1.26-17.88h7.91v17.88h27.27v7.68h-27.27v26.47c0,9.97,3.32,15.13,14.1,15.13,5.16,0,9.28-1.03,13.29-2.52l2.06,6.99c-5.04,1.83-10.43,3.32-17.42,3.32-16.27,0-21.54-9.28-21.54-23.03Z"/>
      </g>
      <g>
        <path class="cls-3" d="m356.1,105.52c-7.41-.79-18.92-.75-27.98,6.22-11.06,8.5-12.36,22.6-14.68,40.47-2.17,16.7-5.77,40.92-11.97,71.44-1.23,2.32-5.38,9.41-14.21,13.33-11.03,4.9-21.12,1.21-23.09.44"/>
        <line class="cls-3" x1="285.49" y1="141.49" x2="356.1" y2="141.49"/>
      </g>
    </g>
    <text class="cls-4" transform="translate(527.11 240.33)"><tspan x="0" y="0">ABIDJAN TREICHVILLE</tspan></text>
  </g>
</svg>